<svg width="27" height="27" viewBox="0 0 27 27" fill="none" xmlns="http://www.w3.org/2000/svg">
<path d="M22.3498 18.1027L17.4349 16.9894C17.1645 16.928 16.9756 16.6915 16.9756 16.414V14.8071C18.9558 13.5081 20.2846 11.1359 20.2846 8.4295C20.2846 4.33282 17.2411 1 13.5002 1C9.75941 1 6.71589 4.33282 6.71589 8.4295C6.71589 11.1034 8.01294 13.4513 9.95375 14.7601V16.416C9.95375 16.6926 9.76551 16.9291 9.49595 16.9909L4.65357 18.1019C2.30003 18.6109 1.49014 20.7366 1.21677 21.9586C1.08192 22.5619 1.0029 23.9208 1 25.687C0.999848 25.7699 1.03265 25.8495 1.09138 25.9083C1.14996 25.967 1.22944 26 1.31242 26H25.6876C25.7706 26 25.85 25.967 25.9086 25.9083C25.9672 25.8495 26.0002 25.7701 26 25.687C25.9976 23.9216 25.9187 22.5627 25.7837 21.9586C25.5103 20.7366 24.7004 18.6109 22.3498 18.1027ZM7.34073 8.4295C7.34073 4.67752 10.1039 1.625 13.5002 1.625C16.8966 1.625 19.6597 4.67752 19.6597 8.4295C19.6597 12.1816 16.8966 15.2342 13.5002 15.2342C10.1039 15.2342 7.34073 12.1816 7.34073 8.4295ZM13.5002 15.8592C14.5181 15.8592 15.4835 15.6108 16.3508 15.1691V16.414C16.3508 16.8628 16.5929 17.2569 16.9659 17.4676C16.133 18.5351 14.8643 19.1686 13.4984 19.1686C12.1197 19.1686 10.8446 18.5264 10.0124 17.444C10.3583 17.2271 10.5786 16.8452 10.5786 16.416V15.1338C11.4639 15.5984 12.4547 15.8592 13.5002 15.8592ZM1.62622 25.375C1.6372 23.8264 1.71073 22.613 1.82667 22.095C2.06724 21.0188 2.77171 19.1483 4.78949 18.7119L9.38659 17.6572C10.3303 18.9975 11.8523 19.7936 13.4984 19.7936C15.1367 19.7936 16.658 19.0009 17.6024 17.668L22.2148 18.7129C24.2287 19.1483 24.9332 21.0188 25.1738 22.095C25.2899 22.6138 25.3633 23.827 25.3739 25.375H1.62622Z" fill="#E41D22" fill-opacity="0.5"/>
<path d="M9.45123 16.796L9.45126 16.796C9.62983 16.755 9.75375 16.5995 9.75375 16.416V14.8654C7.8052 13.5073 6.51589 11.1272 6.51589 8.4295C6.51589 4.23985 9.63224 0.8 13.5002 0.8C17.3682 0.8 20.4846 4.23985 20.4846 8.4295C20.4846 11.1598 19.1638 13.5647 17.1756 14.9141V16.414C17.1756 16.5982 17.2998 16.7536 17.4791 16.7943C17.4791 16.7943 17.4792 16.7943 17.4792 16.7943L22.3921 17.9072C22.3924 17.9073 22.3927 17.9073 22.3931 17.9074C24.8649 18.4424 25.7019 20.677 25.9789 21.9149L25.9789 21.9149C26.1194 22.5437 26.1976 23.9243 26.2 25.6868M9.45123 16.796L1.09138 25.9083L0.949755 26.0495C1.0459 26.1459 1.17635 26.2 1.31242 26.2H25.6876C25.8237 26.2 25.9541 26.1459 26.0502 26.0495C26.1461 25.9534 26.2002 25.8231 26.2 25.6868M9.45123 16.796L4.61129 17.9064M9.45123 16.796L4.61129 17.9064M26.2 25.6868L26 25.687L26.2 25.6867C26.2 25.6867 26.2 25.6867 26.2 25.6868ZM4.61129 17.9064C4.61089 17.9065 4.6105 17.9066 4.6101 17.9067L4.61129 17.9064ZM25.1722 25.175H1.82801C1.84377 23.7215 1.91616 22.6108 2.02184 22.1387L2.02185 22.1386C2.25947 21.0756 2.93765 19.3171 4.83177 18.9074L4.83177 18.9074L4.83421 18.9069L9.3022 17.8817C10.2879 19.2088 11.8322 19.9936 13.4984 19.9936C15.157 19.9936 16.7004 19.2121 17.6866 17.8921L22.1706 18.9079L22.1725 18.9083C24.0627 19.3171 24.741 21.0754 24.9786 22.1386L24.9786 22.1386C25.0844 22.6115 25.1567 23.7221 25.1722 25.175ZM7.54073 8.4295C7.54073 4.76877 10.2326 1.825 13.5002 1.825C16.7679 1.825 19.4597 4.76877 19.4597 8.4295C19.4597 12.0904 16.7679 15.0342 13.5002 15.0342C10.2326 15.0342 7.54073 12.0904 7.54073 8.4295ZM13.5002 16.0592C14.4386 16.0592 15.3334 15.8546 16.1508 15.4867V16.414C16.1508 16.8539 16.3508 17.2491 16.6728 17.5094C15.8787 18.4292 14.7297 18.9686 13.4984 18.9686C12.2512 18.9686 11.0927 18.4181 10.2982 17.4798C10.5966 17.2186 10.7786 16.8363 10.7786 16.416V15.4556C11.6151 15.8438 12.535 16.0592 13.5002 16.0592Z" stroke="#E41D22" stroke-opacity="0.5" stroke-width="0.4"/>
</svg>
