<svg width="24" height="25" fill="none" xmlns="http://www.w3.org/2000/svg"><path d="M17.8762 13.6537c-.5115 0-.9435.1783-1.2828.5307-.6826.7133-1.0637 1.4839-1.3724 2.109-.4646.9436-.5635 1.0051-.8498.95-2.2486-.4225-6.52076-4.8729-6.92627-7.2154-.04891-.28125-.0642-.3651.91291-.88624.59502-.31842 1.33574-.71432 2.02146-1.42969.3148-.32691.7733-1.06882.3179-2.37009C9.96053 3.23724 6.82443.14541 5.28389.0074297 5.22683.00212275 5.16978 0 5.1117 0 2.59711 0 .322982 4.71045.299548 4.75928c-.137548.30037-.190527.50416-.2231315.63365C.047888 5.50331 0 5.68799 0 5.93954 0 9.39119 3.3358 15.5441 6.207 18.534c2.86813 2.9889 8.7735 6.4649 12.0879 6.466h.0031c.2415 0 .4198-.051.5665-.0913.0968-.0276.2883-.0817.5665-.2208.0479-.0233 4.7826-2.5112 4.5615-5.1912-.1427-1.6961-3.8799-5.843-6.1163-5.843ZM1.50182 5.74531c.01732-.0605.04585-.16664.12023-.33009.72952-1.58678 2.44938-3.89212 3.48558-3.89212v-.37149l.05195.37467c.75092.06793 3.52736 2.51974 4.16314 4.3379.07641.21759.18135.60606.02445.76845-.52574.54662-1.12688.86822-1.65975 1.15267-.86503.46171-1.93892 1.03698-1.68217 2.5123.52167 3.0091 5.21865 7.9031 8.10825 8.4466 1.3846.2589 1.9521-.8216 2.4117-1.7556.271-.5519.5777-1.176 1.1054-1.7269.0367-.0392.0989-.0827.2456-.0827 1.4529 0 4.5676 3.3964 4.6552 4.4472.0887 1.0656-2.1518 2.8944-3.7342 3.6841-.163.0817-.2669.1103-.3606.1369-.0612.018-.0928.0265-.1406.0265-2.9731-.0021-8.38437-3.2372-11.05586-6.0191-2.67048-2.783-5.77601-8.42004-5.77703-11.51612.00203-.0467.00916-.08066.03871-.19317Z" fill="#E41D22" fill-opacity=".5"/></svg>