<svg width="29" height="21" viewBox="0 0 29 21" fill="none" xmlns="http://www.w3.org/2000/svg">
<mask id="path-1-outside-1_150_6" maskUnits="userSpaceOnUse" x="0" y="0" width="29" height="21" fill="black">
<rect fill="white" width="29" height="21"/>
<path d="M3.37495 1C2.05815 1 1 2.10263 1 3.4493V17.54C1 18.8865 2.05815 20 3.37495 20H25.768C27.0848 20 28.1429 18.8867 28.1429 17.54V3.4493C28.1429 2.10263 27.0848 1 25.768 1H3.37495ZM3.37495 1.67852H25.768C26.1918 1.67852 26.5736 1.84821 26.8706 2.11328L15.6426 12.7796C15.0206 13.3704 14.1449 13.3592 13.522 12.7692L2.27221 2.11316C2.56922 1.84809 2.95109 1.67852 3.37495 1.67852ZM1.86924 2.66445L10.2563 10.6165L2.11341 18.7382C1.84479 18.4241 1.67865 18.0022 1.67865 17.54V3.44923C1.67865 3.1605 1.75612 2.90253 1.86924 2.66445ZM27.2734 2.66445C27.3868 2.90254 27.4642 3.16027 27.4642 3.44899V17.5397C27.4642 18.0017 27.2983 18.4239 27.0294 18.7377L18.9077 10.6051L27.2734 2.66445ZM18.4204 11.0727L26.4785 19.152C26.261 19.2573 26.0244 19.3217 25.768 19.3217H3.37502C3.1187 19.3217 2.88204 19.2573 2.66451 19.152L10.7438 11.083L13.0551 13.2673C13.9192 14.0864 15.245 14.0873 16.1085 13.2673L18.4204 11.0727Z"/>
</mask>
<path d="M3.37495 1C2.05815 1 1 2.10263 1 3.4493V17.54C1 18.8865 2.05815 20 3.37495 20H25.768C27.0848 20 28.1429 18.8867 28.1429 17.54V3.4493C28.1429 2.10263 27.0848 1 25.768 1H3.37495ZM3.37495 1.67852H25.768C26.1918 1.67852 26.5736 1.84821 26.8706 2.11328L15.6426 12.7796C15.0206 13.3704 14.1449 13.3592 13.522 12.7692L2.27221 2.11316C2.56922 1.84809 2.95109 1.67852 3.37495 1.67852ZM1.86924 2.66445L10.2563 10.6165L2.11341 18.7382C1.84479 18.4241 1.67865 18.0022 1.67865 17.54V3.44923C1.67865 3.1605 1.75612 2.90253 1.86924 2.66445ZM27.2734 2.66445C27.3868 2.90254 27.4642 3.16027 27.4642 3.44899V17.5397C27.4642 18.0017 27.2983 18.4239 27.0294 18.7377L18.9077 10.6051L27.2734 2.66445ZM18.4204 11.0727L26.4785 19.152C26.261 19.2573 26.0244 19.3217 25.768 19.3217H3.37502C3.1187 19.3217 2.88204 19.2573 2.66451 19.152L10.7438 11.083L13.0551 13.2673C13.9192 14.0864 15.245 14.0873 16.1085 13.2673L18.4204 11.0727Z" fill="#E41D22"/>
<path d="M26.8706 2.11328L27.0772 2.33078L27.3134 2.10639L27.0703 1.88945L26.8706 2.11328ZM15.6426 12.7796L15.8492 12.9972L15.8492 12.9971L15.6426 12.7796ZM13.522 12.7692L13.3157 12.987L13.3157 12.987L13.522 12.7692ZM2.27221 2.11316L2.07246 1.88933L1.82902 2.10659L2.0659 2.33096L2.27221 2.11316ZM1.86924 2.66445L2.07565 2.44675L1.77569 2.16234L1.59828 2.53569L1.86924 2.66445ZM10.2563 10.6165L10.4682 10.8289L10.6866 10.6111L10.4627 10.3988L10.2563 10.6165ZM2.11341 18.7382L1.88543 18.9332L2.09595 19.1793L2.32527 18.9506L2.11341 18.7382ZM27.2734 2.66445L27.5443 2.53548L27.3666 2.16236L27.0669 2.44686L27.2734 2.66445ZM27.0294 18.7377L26.8171 18.9497L27.0463 19.1791L27.2572 18.9329L27.0294 18.7377ZM18.9077 10.6051L18.7012 10.3875L18.478 10.5994L18.6954 10.8171L18.9077 10.6051ZM18.4204 11.0727L18.6328 10.8609L18.4262 10.6537L18.2139 10.8551L18.4204 11.0727ZM26.4785 19.152L26.6093 19.422L26.9884 19.2384L26.6909 18.9402L26.4785 19.152ZM2.66451 19.152L2.45251 18.9398L2.15381 19.2381L2.53378 19.422L2.66451 19.152ZM10.7438 11.083L10.9499 10.865L10.738 10.6648L10.5318 10.8708L10.7438 11.083ZM13.0551 13.2673L13.2615 13.0495L13.2611 13.0492L13.0551 13.2673ZM16.1085 13.2673L15.902 13.0497L15.902 13.0497L16.1085 13.2673ZM3.37495 0.7C1.88293 0.7 0.7 1.94664 0.7 3.4493H1.3C1.3 2.25861 2.23338 1.3 3.37495 1.3V0.7ZM0.7 3.4493V17.54H1.3V3.4493H0.7ZM0.7 17.54C0.7 19.0407 1.88125 20.3 3.37495 20.3V19.7C2.23506 19.7 1.3 18.7322 1.3 17.54H0.7ZM3.37495 20.3H25.768V19.7H3.37495V20.3ZM25.768 20.3C27.2616 20.3 28.4429 19.041 28.4429 17.54H27.8429C27.8429 18.7325 26.9079 19.7 25.768 19.7V20.3ZM28.4429 17.54V3.4493H27.8429V17.54H28.4429ZM28.4429 3.4493C28.4429 1.94664 27.26 0.7 25.768 0.7V1.3C26.9095 1.3 27.8429 2.25861 27.8429 3.4493H28.4429ZM25.768 0.7H3.37495V1.3H25.768V0.7ZM3.37495 1.97852H25.768V1.37852H3.37495V1.97852ZM25.768 1.97852C26.1088 1.97852 26.4214 2.11453 26.6708 2.3371L27.0703 1.88945C26.7257 1.58189 26.2748 1.37852 25.768 1.37852V1.97852ZM26.664 1.89577L15.4359 12.5621L15.8492 12.9971L27.0772 2.33078L26.664 1.89577ZM15.436 12.5621C14.9328 13.04 14.2386 13.0347 13.7283 12.5514L13.3157 12.987C14.0513 13.6838 15.1084 13.7007 15.8492 12.9972L15.436 12.5621ZM13.7283 12.5514L2.47851 1.89536L2.0659 2.33096L13.3157 12.987L13.7283 12.5514ZM2.47196 2.33699C2.72131 2.11447 3.034 1.97852 3.37495 1.97852V1.37852C2.86818 1.37852 2.41714 1.58172 2.07246 1.88933L2.47196 2.33699ZM1.66283 2.88215L10.0499 10.8342L10.4627 10.3988L2.07565 2.44675L1.66283 2.88215ZM10.0445 10.4041L1.90155 18.5258L2.32527 18.9506L10.4682 10.8289L10.0445 10.4041ZM2.34139 18.5432C2.11887 18.283 1.97865 17.9301 1.97865 17.54H1.37865C1.37865 18.0743 1.57071 18.5653 1.88543 18.9332L2.34139 18.5432ZM1.97865 17.54V3.44923H1.37865V17.54H1.97865ZM1.97865 3.44923C1.97865 3.21646 2.0406 3.00283 2.14021 2.7932L1.59828 2.53569C1.47163 2.80223 1.37865 3.10454 1.37865 3.44923H1.97865ZM27.0026 2.79342C27.1023 3.0029 27.1642 3.21624 27.1642 3.44899H27.7642C27.7642 3.1043 27.6713 2.80218 27.5443 2.53548L27.0026 2.79342ZM27.1642 3.44899V17.5397H27.7642V3.44899H27.1642ZM27.1642 17.5397C27.1642 17.9298 27.0241 18.2829 26.8016 18.5425L27.2572 18.9329C27.5724 18.565 27.7642 18.0737 27.7642 17.5397H27.1642ZM27.2417 18.5257L19.12 10.3931L18.6954 10.8171L26.8171 18.9497L27.2417 18.5257ZM19.1142 10.8227L27.48 2.88204L27.0669 2.44686L18.7012 10.3875L19.1142 10.8227ZM18.208 11.2846L26.2661 19.3639L26.6909 18.9402L18.6328 10.8609L18.208 11.2846ZM26.3478 18.882C26.1646 18.9707 25.9724 19.0217 25.768 19.0217V19.6217C26.0763 19.6217 26.3574 19.544 26.6093 19.422L26.3478 18.882ZM25.768 19.0217H3.37502V19.6217H25.768V19.0217ZM3.37502 19.0217C3.17063 19.0217 2.97845 18.9707 2.79524 18.882L2.53378 19.422C2.78562 19.544 3.06677 19.6217 3.37502 19.6217V19.0217ZM2.87651 19.3643L10.9558 11.2953L10.5318 10.8708L2.45251 18.9398L2.87651 19.3643ZM10.5377 11.3011L12.849 13.4853L13.2611 13.0492L10.9499 10.865L10.5377 11.3011ZM12.8487 13.485C13.8283 14.4136 15.3356 14.415 16.3151 13.4848L15.902 13.0497C15.1544 13.7596 14.01 13.7591 13.2615 13.0495L12.8487 13.485ZM16.3151 13.4848L18.627 11.2903L18.2139 10.8551L15.902 13.0497L16.3151 13.4848Z" fill="#E41D22" mask="url(#path-1-outside-1_150_6)"/>
</svg>
