<svg width="25" height="32" viewBox="0 0 25 32" fill="none" xmlns="http://www.w3.org/2000/svg">
<path d="M21.2483 4.48479C18.9167 2.12214 15.8096 0.820404 12.4993 0.820404C9.18758 0.820404 6.08539 2.12214 3.76578 4.48337C1.43422 6.83604 0.148911 9.98244 0.148911 13.3426C0.148911 16.7027 1.43352 19.8491 3.76438 22.2011L12.4958 31.0489L21.2483 22.2011C26.0689 17.3162 26.0689 9.36898 21.2483 4.48479ZM20.2484 21.1865L12.4972 29.0219L4.76422 21.1865C2.70055 19.1046 1.5643 16.3187 1.5643 13.3433C1.5643 10.3679 2.70055 7.58203 4.76633 5.49797C6.82086 3.40678 9.56727 2.25538 12.4993 2.25538C15.432 2.25538 18.1834 3.40749 20.2477 5.49939C24.5164 9.82355 24.5164 16.8616 20.2484 21.1865ZM12.4993 7.29845C10.9004 7.29845 9.40414 7.9283 8.28899 9.06902C7.16258 10.2104 6.54243 11.7281 6.54243 13.3426C6.54243 14.9571 7.16329 16.4747 8.28899 17.6162C9.40625 18.7476 10.9018 19.3711 12.4993 19.3711C14.0961 19.3711 15.5952 18.7483 16.7265 17.6133C19.0278 15.2578 19.0278 11.426 16.7244 9.0683C15.5973 7.92759 14.0968 7.29845 12.4993 7.29845ZM15.7259 16.6001C14.866 17.4623 13.7199 17.9375 12.4993 17.9375C11.2794 17.9375 10.1396 17.463 9.29024 16.6023C8.43032 15.7316 7.95711 14.5738 7.95711 13.3426C7.95711 12.1107 8.43032 10.9536 9.29165 10.0801C10.141 9.2108 11.2801 8.732 12.4993 8.732C13.7185 8.732 14.8639 9.21152 15.721 10.0801C17.4788 11.8791 17.4788 14.8061 15.7259 16.6001Z" fill="#313131"/>
</svg>
