<svg width="24" height="25" viewBox="0 0 24 25" fill="none" xmlns="http://www.w3.org/2000/svg">
<path d="M17.8762 13.6537C17.3647 13.6537 16.9327 13.832 16.5934 14.1844C15.9108 14.8977 15.5297 15.6683 15.221 16.2934C14.7564 17.237 14.6575 17.2985 14.3712 17.2434C12.1226 16.8209 7.85044 12.3705 7.44493 10.028C7.39602 9.74675 7.38073 9.6629 8.35784 9.14176C8.95286 8.82334 9.69358 8.42744 10.3793 7.71207C10.6941 7.38516 11.1526 6.64325 10.6972 5.34198C9.96053 3.23724 6.82443 0.14541 5.28389 0.0074297C5.22683 0.00212275 5.16978 0 5.1117 0C2.59711 0 0.322982 4.71045 0.299548 4.75928C0.162 5.05965 0.109021 5.26344 0.0764165 5.39293C0.047888 5.50331 0 5.68799 0 5.93954C0 9.39119 3.3358 15.5441 6.207 18.534C9.07513 21.5229 14.9805 24.9989 18.2949 25H18.298C18.5395 25 18.7178 24.949 18.8645 24.9087C18.9613 24.8811 19.1528 24.827 19.431 24.6879C19.4789 24.6646 24.2136 22.1767 23.9925 19.4967C23.8498 17.8006 20.1126 13.6537 17.8762 13.6537ZM1.50182 5.74531C1.51914 5.68481 1.54767 5.57867 1.62205 5.41522C2.35157 3.82844 4.07143 1.5231 5.10763 1.5231V1.15161L5.15958 1.52628C5.9105 1.59421 8.68694 4.04602 9.32272 5.86418C9.39913 6.08177 9.50407 6.47024 9.34717 6.63263C8.82143 7.17925 8.22029 7.50085 7.68742 7.7853C6.82239 8.24701 5.7485 8.82228 6.00525 10.2976C6.52692 13.3067 11.2239 18.2007 14.1135 18.7442C15.4981 19.0031 16.0656 17.9226 16.5252 16.9886C16.7962 16.4367 17.1029 15.8126 17.6306 15.2617C17.6673 15.2225 17.7295 15.179 17.8762 15.179C19.3291 15.179 22.4438 18.5754 22.5314 19.6262C22.6201 20.6918 20.3796 22.5206 18.7972 23.3103C18.6342 23.392 18.5303 23.4206 18.4366 23.4472C18.3754 23.4652 18.3438 23.4737 18.296 23.4737C15.3229 23.4716 9.91163 20.2365 7.24014 17.4546C4.56966 14.6716 1.46413 9.03456 1.46311 5.93848C1.46514 5.89178 1.47227 5.85782 1.50182 5.74531Z" fill="#E41D22"/>
</svg>
