
SVGOMG
Powered by SVGO v2.6.1

Open SVG
Paste markup
Demo
Contribute
About

1.59k → 1.27k 79.96%
<svg width="26" height="28" fill="none" xmlns="http://www.w3.org/2000/svg"><path d="M4.14894 23.5112c-.13065-.002-.25526-.0579-.34671-.1557-.09225-.0972-.14403-.2287-.14403-.3657 0-.1371.05178-.2686.14403-.3658l2.4517-2.5785c.09392-.0984.22131-.1537.35414-.1537.13282 0 .26021.0553.35413.1537s.14669.2318.14669.3709c0 .1392-.05277.2726-.14669.371l-2.47646 2.5681c-.08901.0953-.20962.1511-.3368.1557ZM25.6353 1.14486v-.03632c.0024-.03108.0024-.06231 0-.09339.0019-.017236.0019-.034643 0-.051881V.926952c.0017-.027641.0017-.055369 0-.083011.0029-.018904.0029-.038166 0-.05707V.750553l-.0297-.041505-.0396-.051882-.0595-.041506-.0347-.031129h-.0346c-.0181-.003008-.0365-.003008-.0545 0h-.2922L3.99036 7.82206c-.08044.02779-.15272.07673-.20996.14213-.05723.0654-.0975.14508-.11695.23142-.01944.08648-.01735.17675.00607.26214.02341.0854.06737.16306.12767.22555l4.39833 4.6175.27737 4.6694c-.00016.1332.04861.2614.13621.358.0876.0965.20731.1541.33433.1608l4.45777.2905 4.3934 4.602c.0459.049.1006.088.1609.1147.0604.0267.1252.0406.1907.0409h.114c.0824-.0204.1585-.0626.2209-.1225.0624-.06.1092-.1357.1357-.2199l7.0135-22.04466.005-.00518Zm-2.6994 1.16215L10.1272 13.8456 5.07013 8.54322 22.9359 2.30701ZM12.3561 17.6433l-2.91736-.192-.17831-3.061.49531.5188c.04394.0501.09813.0891.15849.1142h.05944c.04113.0054.08273.0054.12383 0 .0378.0049.0761.0049.1139 0h.0545c.0583-.0222.112-.0556.1585-.0986l10.0547-9.03783-8.648 10.52683c-.0817.0992-.1245.227-.1199.3579.0046.1309.0563.2551.1446.3477l.5003.524Zm5.5871 4.3892-5.0373-5.3023L23.8968 3.31352 17.9432 22.0325ZM7.6507 27.1792c-.09796-.0004-.19359-.0313-.27482-.0886-.08122-.0574-.14438-.1387-.18149-.2336-.03711-.095-.04651-.1994-.027-.2999.01951-.1006.06704-.1928.1366-.2651l4.20021-4.3996c.046-.0486.1008-.0872.1612-.1135.0603-.0264.1251-.0399.1905-.0399.0653 0 .1301.0135.1904.0399.0604.0263.1152.0649.1612.1135.0923.0972.1441.2287.1441.3658 0 .1371-.0518.2686-.1441.3658l-4.20513 4.4048c-.04628.048-.10117.0861-.16152.1119-.06034.0258-.12496.0389-.19015.0385ZM.647039 19.8431c-.097958-.0004-.193595-.0312-.274817-.0886-.081222-.0574-.144382-.1387-.181493-.2336-.037111-.095-.046507-.1994-.027-.2999.019508-.1006.067043-.1928.136595-.2651l4.185346-4.4047c.04618-.0481.10094-.0861.16116-.112.06021-.0258.1247-.039.18978-.0388.06508.0003.12948.0139.18952.0402.06004.0264.11454.0648.1604.1132.04585.0483.08216.1057.10686.1688.02469.063.03728.1306.03705.1988-.00023.0681-.01327.1356-.03839.1985-.02512.0629-.06182.12-.108.168l-4.16553 4.3996c-.048182.0516-.106105.092-.17007.1188-.063964.0268-.132562.0394-.201411.0368Z"/></svg>
