<svg width="25" height="28" viewBox="0 0 25 28" fill="none" xmlns="http://www.w3.org/2000/svg">
<path d="M15.1047 0H9.89531C4.43901 0 0 4.54387 0 10.1287V14.9329C0 19.0919 2.49635 22.8297 6.25 24.3523V27.4668C6.25 27.6777 6.3713 27.8688 6.55974 27.9542C6.6274 27.9849 6.69937 28 6.77083 28C6.8975 28 7.02286 27.9526 7.12052 27.8621L10.1405 25.0616H15.1047C20.561 25.0616 25 20.5177 25 14.9329V10.1287C25 4.54387 20.561 0 15.1047 0ZM23.9583 14.9329C23.9583 19.9298 19.9867 23.9951 15.1047 23.9951H9.93958C9.81036 23.9951 9.68578 24.0441 9.5899 24.1331L7.29167 26.2645V23.9826C7.29167 23.7566 7.15255 23.5551 6.94427 23.4801C3.41391 22.2022 1.04167 18.7675 1.04167 14.9329V10.1287C1.04167 5.13175 5.01328 1.06645 9.89531 1.06645H15.1047C19.9867 1.06645 23.9583 5.13175 23.9583 10.1287V14.9329Z" fill="#313131"/>
<path d="M19.3832 16.2597L16.1819 14.131C15.8317 13.8982 15.4154 13.8191 15.0073 13.9055C14.5988 13.9935 14.2481 14.2404 14.0202 14.6002L13.8697 14.8371C12.4842 14.3684 10.9565 13.7696 10.0421 11.0592L10.4207 10.7223H10.421C11.0708 10.1438 11.1391 9.13148 10.5738 8.46495L8.06961 5.51552C7.88086 5.29322 7.55179 5.27029 7.33461 5.46294L5.76247 6.86213C4.38304 8.0895 5.02773 9.90529 5.23961 10.502C5.24898 10.5286 5.26044 10.5541 5.27393 10.5791C5.32862 10.6796 6.6345 13.0651 8.74299 15.2641C10.8602 17.472 14.6827 19.5111 14.8 19.5705C15.2366 19.8605 15.7277 19.9996 16.2135 19.9996C17.0664 19.9996 17.9031 19.5715 18.4018 18.7863L19.5363 16.9976C19.6929 16.7502 19.6243 16.4201 19.3832 16.2597ZM17.5283 18.2052C17.0588 18.9451 16.0893 19.1555 15.3234 18.6499C15.2852 18.6295 11.488 16.6049 9.48638 14.5174C7.61565 12.5662 6.37356 10.399 6.20393 10.0964C5.79117 8.91227 5.86419 8.18426 6.44554 7.66719L7.62502 6.61791L9.78747 9.1648C9.97945 9.39078 9.95737 9.72144 9.73737 9.91724L9.0983 10.4859C8.94263 10.6244 8.88132 10.8436 8.94211 11.0452C10.0318 14.6699 12.1505 15.3818 13.6975 15.902L13.9228 15.978C14.1482 16.0561 14.3954 15.967 14.5243 15.7629L14.8938 15.1808C14.9701 15.0605 15.0866 14.9787 15.2219 14.9495C15.3577 14.9199 15.4965 14.9475 15.6143 15.0256L18.3789 16.8638L17.5283 18.2052Z" fill="#313131"/>
<path d="M13.6886 8.66338C13.4114 8.58158 13.1236 8.74666 13.045 9.03045C12.9664 9.31375 13.1269 9.60846 13.4033 9.68919C14.1795 9.91517 14.7974 10.5494 15.0164 11.3446C15.081 11.5794 15.29 11.733 15.5174 11.733C15.5642 11.733 15.6118 11.7268 15.659 11.7133C15.9358 11.6331 16.097 11.3388 16.0189 11.0551C15.7028 9.90632 14.8097 8.98987 13.6886 8.66338Z" fill="#313131"/>
<path d="M17.6524 11.8476C17.6992 11.8476 17.7467 11.8413 17.7941 11.8278C18.071 11.7476 18.232 11.4529 18.1539 11.1696C17.5395 8.9393 15.8053 7.15998 13.6284 6.52576C13.3517 6.44402 13.0635 6.61012 12.985 6.89289C12.9064 7.17614 13.0669 7.47085 13.3435 7.55158C15.1751 8.08481 16.6344 9.58242 17.1514 11.4591C17.2162 11.694 17.425 11.8476 17.6524 11.8476Z" fill="#313131"/>
<path d="M13.404 4.0429C13.1268 3.96116 12.839 4.12624 12.7604 4.41002C12.6818 4.69333 12.8423 4.98804 13.1187 5.06877C16.2226 5.97275 18.6948 8.50972 19.5707 11.6893C19.6352 11.9241 19.8443 12.0777 20.0716 12.0777C20.1184 12.0777 20.166 12.0715 20.2133 12.058C20.49 11.9778 20.6512 11.683 20.5732 11.3997C19.5999 7.8666 16.8528 5.04792 13.404 4.0429Z" fill="#313131"/>
</svg>
