<svg width="27" height="29" viewBox="0 0 27 29" fill="none" xmlns="http://www.w3.org/2000/svg">
<path d="M13.4993 0C6.05554 0 0 5.90002 0 13.1518C0 16.4167 1.24029 19.5441 3.4939 21.9679L2.05229 26.632L1.599 28.1792L6.95874 24.6498C8.95429 25.7324 11.214 26.3036 13.5 26.3036C20.9445 26.3036 27 20.4036 27 13.1525C26.9993 5.90002 20.9431 0 13.4993 0ZM13.4993 25.1309C11.2626 25.1309 9.07116 24.5372 7.16073 23.4132L6.90537 23.2605L3.69318 25.3888L4.53963 22.6497L4.83755 21.6481L4.65515 21.4671C2.42857 19.221 1.20314 16.2687 1.20314 13.1531C1.20314 6.54761 6.71892 1.17408 13.4986 1.17408C20.279 1.17408 25.7948 6.54761 25.7948 13.1531C25.7955 19.7573 20.2797 25.1309 13.4993 25.1309Z" fill="#313131"/>
<path d="M17.737 13.681C17.3979 13.681 17.1114 13.7915 16.8865 14.01C16.4339 14.4523 16.1812 14.9301 15.9765 15.3177C15.6685 15.9028 15.6029 15.9409 15.4131 15.9067C13.9222 15.6448 11.0896 12.8853 10.8208 11.4328C10.7883 11.2584 10.7782 11.2064 11.4261 10.8833C11.8206 10.6859 12.3117 10.4404 12.7663 9.99681C12.9751 9.79411 13.2791 9.33409 12.9771 8.52724C12.4887 7.22219 10.4094 5.3051 9.38795 5.21954C9.35012 5.21625 9.31229 5.21494 9.27378 5.21494C7.60654 5.21494 6.09873 8.13566 6.08319 8.16593C5.99199 8.35218 5.95687 8.47854 5.93525 8.55883C5.91633 8.62727 5.88458 8.74178 5.88458 8.89776C5.88458 11.038 8.09631 14.8531 9.99999 16.707C11.9016 18.5602 15.8171 20.7156 18.0146 20.7162H18.0167C18.1768 20.7162 18.295 20.6846 18.3923 20.6596C18.4564 20.6425 18.5834 20.6089 18.7679 20.5227C18.7996 20.5083 21.9389 18.9656 21.7923 17.3039C21.6977 16.2522 19.2198 13.681 17.737 13.681ZM6.88033 8.77732C6.89182 8.73981 6.91073 8.674 6.96005 8.57265C7.44374 7.58876 8.58405 6.15933 9.27108 6.15933V5.92899L9.30553 6.16131C9.8034 6.20343 11.6443 7.72368 12.0658 8.85103C12.1165 8.98594 12.186 9.22682 12.082 9.32751C11.7334 9.66644 11.3349 9.86585 10.9816 10.0422C10.408 10.3285 9.69599 10.6852 9.86623 11.6C10.2121 13.4657 13.3264 16.5003 15.2422 16.8373C16.1603 16.9979 16.5365 16.3279 16.8412 15.7488C17.0209 15.4065 17.2242 15.0196 17.5742 14.678C17.5985 14.6536 17.6397 14.6267 17.737 14.6267C18.7003 14.6267 20.7654 16.7326 20.8235 17.3842C20.8823 18.0449 19.3968 19.1789 18.3477 19.6685C18.2396 19.7192 18.1707 19.7369 18.1085 19.7534C18.068 19.7646 18.0471 19.7698 18.0153 19.7698C16.0441 19.7685 12.4563 17.7626 10.685 16.0377C8.91439 14.3121 6.85534 10.8168 6.85466 8.8971C6.85601 8.86814 6.86074 8.84708 6.88033 8.77732Z" fill="#313131"/>
</svg>


