<svg width="256" height="256" viewBox="0 0 256 256" fill="none" xmlns="http://www.w3.org/2000/svg">
<circle cx="128" cy="128" r="126" fill="white" stroke="#313131" stroke-width="4"/>
<circle cx="127.5" cy="127.5" r="105.5" stroke="#E41D22" stroke-width="10"/>
<path d="M163.891 117.783C163.863 117.727 163.836 117.7 163.836 117.645C163.753 117.48 163.671 117.342 163.561 117.204C163.478 117.067 163.396 116.957 163.341 116.819C163.258 116.681 163.175 116.544 163.093 116.406C159.241 110.295 153.353 105.643 146.53 103.303L146.365 103.248C146.145 103.165 145.925 103.11 145.705 103.027C145.512 102.972 145.347 102.917 145.154 102.862C144.907 102.78 144.687 102.725 144.439 102.642C144.246 102.587 144.054 102.532 143.861 102.477C143.669 102.422 143.476 102.367 143.283 102.312C143.036 102.257 142.816 102.174 142.568 102.119C142.541 102.119 142.486 102.091 142.458 102.091C142.073 101.981 141.688 101.899 141.302 101.816V78.2519H142.596C143.559 78.2519 144.411 77.8665 145.017 77.2333C145.622 76.6002 146.035 75.7468 146.035 74.8108V60.4686C146.035 59.395 145.54 58.4315 144.769 57.7983C144.522 57.5781 144.219 57.4129 143.916 57.2753C143.504 57.1101 143.063 57 142.568 57H114.395C113.789 57 113.239 57.1376 112.744 57.4129C112.551 57.523 112.359 57.6332 112.194 57.7708C111.423 58.4039 110.928 59.3674 110.928 60.441V74.7833C110.928 76.6827 112.469 78.2243 114.367 78.2243H115.66V101.789C115.275 101.871 114.89 101.981 114.505 102.091C114.477 102.091 114.422 102.119 114.395 102.119C114.147 102.174 113.927 102.257 113.679 102.312C113.487 102.367 113.294 102.422 113.102 102.477C112.909 102.532 112.716 102.587 112.524 102.642C112.276 102.725 112.056 102.78 111.808 102.862C111.616 102.917 111.451 102.972 111.258 103.027C111.038 103.11 110.818 103.165 110.598 103.248L110.433 103.303C107.021 104.486 103.83 106.221 101.023 108.45C98.2169 110.68 95.7957 113.35 93.8698 116.406C93.7873 116.544 93.6772 116.709 93.5947 116.847C93.5122 116.984 93.4296 117.094 93.3746 117.232C93.292 117.37 93.2095 117.535 93.127 117.672C93.0995 117.7 93.0719 117.755 93.0719 117.81C90.4307 122.517 89.0275 127.885 89 133.281C89 134.52 89.055 135.786 89.2201 137.025L91.9714 160.837L93.4296 173.472L95.7957 193.981C96.0709 196.266 97.9968 198 100.28 198H156.71C157.865 198 158.938 197.56 159.736 196.844C160.534 196.128 161.084 195.11 161.195 193.981L163.561 173.472L165.019 160.837L167.77 137.025C167.908 135.896 167.963 134.767 167.963 133.639C167.99 128.078 166.587 122.6 163.891 117.783ZM119.815 94.0806V86.3177H137.148V94.0806H119.815ZM137.148 98.2099V100.99C134.287 100.55 131.398 100.33 128.509 100.33H128.454C125.565 100.33 122.676 100.55 119.815 100.99V98.2099H137.148ZM119.815 82.1884V78.2519H137.148V82.1884H119.815ZM111.808 107.212C112.001 107.157 112.194 107.074 112.359 107.019C112.524 106.964 112.689 106.909 112.881 106.854C113.046 106.799 113.212 106.744 113.377 106.689C113.542 106.634 113.707 106.578 113.872 106.523C114.037 106.468 114.23 106.413 114.395 106.386C114.56 106.331 114.725 106.303 114.89 106.248C115.082 106.193 115.248 106.138 115.44 106.111C115.605 106.083 115.743 106.028 115.908 106C116.1 105.945 116.293 105.918 116.458 105.863C116.623 105.835 116.761 105.78 116.926 105.753C117.118 105.698 117.311 105.67 117.504 105.615C117.669 105.587 117.806 105.56 117.971 105.505C118.164 105.477 118.357 105.422 118.549 105.395C118.714 105.367 118.852 105.34 119.017 105.312C119.209 105.285 119.402 105.257 119.595 105.202C119.76 105.175 119.897 105.147 120.062 105.119C120.255 105.092 120.448 105.064 120.64 105.037C120.805 105.009 120.943 104.982 121.108 104.954C121.3 104.927 121.493 104.899 121.686 104.872C121.851 104.844 121.988 104.817 122.153 104.817C122.346 104.789 122.539 104.762 122.731 104.762C122.896 104.734 123.061 104.734 123.199 104.707C123.391 104.679 123.584 104.679 123.777 104.652C123.942 104.624 124.107 104.624 124.244 104.596C124.437 104.569 124.63 104.569 124.822 104.569C124.987 104.569 125.152 104.541 125.317 104.541C125.51 104.541 125.675 104.514 125.868 104.514C126.033 104.514 126.198 104.486 126.363 104.486C126.555 104.486 126.721 104.486 126.913 104.459C127.078 104.459 127.243 104.459 127.436 104.431H129.527C129.692 104.431 129.857 104.431 130.05 104.459C130.242 104.459 130.407 104.459 130.6 104.486C130.765 104.486 130.93 104.514 131.095 104.514C131.288 104.514 131.453 104.541 131.645 104.541C131.81 104.541 131.976 104.569 132.141 104.569C132.333 104.569 132.498 104.596 132.691 104.596C132.856 104.596 133.021 104.624 133.186 104.652C133.379 104.679 133.571 104.679 133.736 104.707C133.901 104.734 134.067 104.734 134.204 104.762C134.397 104.789 134.589 104.817 134.782 104.817C134.947 104.844 135.085 104.844 135.25 104.872C135.442 104.899 135.635 104.927 135.827 104.954C135.992 104.982 136.13 105.009 136.295 105.037C136.488 105.064 136.68 105.092 136.873 105.119C137.038 105.147 137.176 105.175 137.341 105.202C137.533 105.23 137.726 105.257 137.918 105.312C138.083 105.34 138.221 105.367 138.386 105.395C138.579 105.422 138.771 105.477 138.964 105.505C139.129 105.532 139.267 105.56 139.432 105.615C139.624 105.643 139.817 105.698 140.009 105.725C140.174 105.753 140.312 105.808 140.477 105.835C140.67 105.89 140.862 105.918 141.027 105.973C141.192 106 141.33 106.055 141.495 106.083C141.688 106.138 141.853 106.166 142.045 106.221C142.21 106.276 142.376 106.303 142.541 106.358C142.706 106.413 142.898 106.468 143.063 106.523C143.228 106.578 143.393 106.634 143.559 106.689C143.724 106.744 143.889 106.799 144.081 106.854C144.246 106.909 144.411 106.964 144.604 107.019C144.797 107.074 144.989 107.129 145.182 107.212C147.768 108.093 150.217 109.359 152.418 110.955C154.619 112.552 156.572 114.452 158.223 116.626H98.7672C102.069 112.277 106.636 108.973 111.808 107.212ZM163.643 136.529L160.892 160.341L157.068 193.485C157.068 193.595 157.013 193.678 156.93 193.733L156.902 193.761C156.847 193.816 156.765 193.843 156.682 193.843H100.28C100.253 193.843 100.198 193.816 100.17 193.816C100.143 193.816 100.143 193.816 100.115 193.816C100.088 193.816 100.06 193.788 100.06 193.761C100.033 193.761 100.033 193.733 100.005 193.733C99.9227 193.678 99.8952 193.595 99.8677 193.485L96.0434 160.341L93.2921 136.529C92.6593 131.106 93.6772 125.628 96.1534 120.783H160.782C163.258 125.601 164.248 131.106 163.643 136.529Z" fill="#313131"/>
<path d="M109.952 148.834C109.952 138.622 118.252 130.294 128.482 130.294C138.711 130.294 147.011 138.622 147.011 148.834C147.011 159.046 138.685 167.375 128.482 167.375C118.277 167.375 109.952 159.072 109.952 148.834Z" fill="#E41D22" stroke="black" stroke-width="3"/>
</svg>
